double_pendulum_states
version=1
nRows=47
nColumns=5
inDegrees=yes

# SIMM Motion File Header:
name double_pendulum_states
datacolumns 5
datarows 47
otherdata 1
range 3.42518486 4.39943791
endheader
time	/jointset/pin1/q1/value	/jointset/pin1/q1/speed	/jointset/pin2/q2/value	/jointset/pin2/q2/speed
      3.42518486	     20.05900069	    -63.85973839	     -3.99022050	   -333.72096852
      3.43793852	     19.18439823	    -73.81346662	     -8.14844365	   -317.11646711
      3.45069217	     18.16431909	    -86.55850726	    -12.05002581	   -293.70987070
      3.46696609	     16.60346246	   -105.68448361	    -16.53558665	   -256.38485857
      3.48324001	     14.71499728	   -126.57773203	    -20.36512271	   -213.56048403
      3.49951393	     12.48112013	   -147.94913213	    -23.47024590	   -167.70384582
      3.51578785	      9.90211458	   -168.86498277	    -25.81651773	   -120.53152611
      3.53206177	      6.99083412	   -188.70192492	    -27.39234425	    -73.17015767
      3.55182317	      3.03965196	   -210.78566876	    -28.27586238	    -16.47537002
      3.57158456	     -1.32301861	   -230.29824554	    -28.05554863	     38.39222453
      3.59038501	     -5.80689616	   -246.26231879	    -26.86243309	     88.04172553
      3.60918546	    -10.56576280	   -259.52004323	    -24.76672986	    134.22620313
      3.62798591	    -15.54663021	   -269.82631707	    -21.84508752	    175.65600850
      3.64678635	    -20.69047660	   -276.77375274	    -18.20239663	    210.60739245
      3.66558680	    -25.92884374	   -279.77155003	    -13.97986026	    236.97104040
      3.68490639	    -31.32555295	   -278.04125887	     -9.22824557	    252.87432673
      3.70422598	    -36.63739582	   -270.94222203	     -4.29233512	    255.90867348
      3.72354557	    -41.76020668	   -258.54247275	      0.57698088	    246.15650774
      3.74286515	    -46.59782345	   -241.59025027	      5.14879526	    225.56209153
      3.76401294	    -51.47602350	   -219.21978039	      9.60071987	    194.29321407
      3.78298479	    -55.42685315	   -197.03082558	     12.98332282	    161.84665601
      3.80195665	    -58.94550799	   -173.78615669	     15.73158630	    127.75307912
      3.82092850	    -62.01818772	   -150.09515866	     17.83056029	     93.60053410
      3.83990035	    -64.64017394	   -126.31781989	     19.28853819	     60.28131007
      3.85887221	    -66.81181475	   -102.64052895	     20.12569451	     28.18826138
      3.87784406	    -68.53587690	    -79.14109162	     20.36635553	     -2.60794664
      3.90101531	    -70.03963925	    -50.70054367	     19.88538947	    -38.64408685
      3.93101869	    -71.01300954	    -14.24707844	     18.05072380	    -83.35069710
      3.95426682	    -71.01837449	     13.74816910	     15.72082123	   -116.96438129
      3.97751495	    -70.37583231	     41.47031959	     12.61783637	   -149.84556041
      3.99820163	    -69.26612478	     65.72840723	      9.22269315	   -178.20816083
      4.01888831	    -67.66140814	     89.25579594	      5.25568355	   -204.96402035
      4.03957499	    -65.58195424	    111.52369433	      0.76248522	   -228.82365891
      4.06498554	    -62.42743603	    136.17279284	     -5.36028996	   -251.65355547
      4.08703224	    -59.21911054	    154.32571785	    -11.05378443	   -263.45884794
      4.10907894	    -55.64781238	    169.08159704	    -16.91299273	   -266.59499459
      4.13112564	    -51.78789657	    180.56316628	    -22.74516964	   -261.10257909
      4.15974011	    -46.45709020	    191.33563101	    -29.98055746	   -242.67404016
      4.18835458	    -40.87302194	    198.40813810	    -36.53461387	   -213.88211496
      4.21696905	    -35.13233048	    202.31220696	    -42.14086950	   -176.66457021
      4.24558352	    -29.32654365	    202.87414345	    -46.57377739	   -131.95382798
      4.27419799	    -23.56114936	    199.32097833	    -49.62282722	    -79.92609392
      4.30281245	    -17.96994248	    190.48474705	    -51.07573555	    -20.32662459
      4.33142692	    -12.72297210	    175.04114573	    -50.70921149	     47.34280134
      4.35563678	     -8.70499878	    155.90012484	    -48.80055912	    111.42616705
      4.37984664	     -5.22408150	    130.60949876	    -45.25852840	    182.38332119
      4.39943791	     -2.90443390	    105.51465672	    -41.07780738	    245.23903404
